<?xml version="1.0" encoding="utf-8"?>
<!-- Generator: Adobe Illustrator 18.1.1, SVG Export Plug-In . SVG Version: 6.00 Build 0)  -->
<!DOCTYPE svg PUBLIC "-//W3C//DTD SVG 1.1//EN" "http://www.w3.org/Graphics/SVG/1.1/DTD/svg11.dtd">
<svg version="1.1" id="Layer_1" xmlns="http://www.w3.org/2000/svg" xmlns:xlink="http://www.w3.org/1999/xlink" x="0px" y="0px"
	 viewBox="0 0 120 120" enable-background="new 0 0 120 120" xml:space="preserve">
<rect fill="#E45238" width="120" height="120"/>
<path fill="#FFFFFF" d="M32.8,84.1c-0.9,0.8-1.6,1.8-2.6,2.4c-3.2,2.2-6.3,4.5-8.9,7.4c-1.9,2.1-3.6,4.4-4.4,7.3
	c-0.2,0.8-0.3,1.6-0.4,2.5c0.1,0,0.1,0.1,0.2,0.1c0.7-0.4,1.5-0.7,2.2-1.1c2.1-1.3,3.9-3,5.6-4.9c5.3-5.8,9.6-12.4,13.6-19.1
	c5-8.3,9.5-16.9,13.1-25.9c0.7-1.6,1.3-3.3,1.8-4.9c0.1-0.3,0.1-0.7,0-1c-1.2-4.5-2.4-9-3.5-13.6c-0.8-3.5-1.3-7-1.3-10.5
	c0-1.2,0.1-2.4,0.4-3.6c0.6-2.8,2.7-4.3,5.3-5.1c2.3-0.7,4.1,0,5.5,2c1.1,1.5,1.5,3.3,1.8,5.1c0.6,4,0,7.9-1,11.7
	c-0.9,3.7-2,7.4-3,11.1c-0.1,0.2-0.1,0.5,0,0.8c3.9,9.9,10,18.1,18.8,24.2c1.1,0.8,2.1,0.9,3.4,0.7c5.7-0.8,11.4-1.7,17.1-1.5
	c2.5,0.1,5.1,0.4,7.4,1.6c1.4,0.8,2.5,1.8,2.8,3.5c0.2,1.1,0,2.2-0.4,3.4c-0.2-1.5-1.1-2.3-2.2-2.9c-1.7-1-3.6-1.4-5.5-1.6
	c-4.5-0.3-9.1,0.1-13.6,0.5c-1.1,0.1-2.2,0.2-3.4,0.3c0,0.1-0.1,0.1-0.1,0.2c0.1,0,0.2,0,0.3,0.1c3.9,2.4,8,4.5,12.5,5.7
	c2.5,0.7,5.1,1,7.7,0.5c1.7-0.4,3.1-1.2,4.2-2.4c-0.2,1-0.7,1.9-1.4,2.7c-1.8,2.3-4.3,3.2-7.2,3.4c-4.3,0.3-8.3-0.9-12.2-2.6
	c-3.9-1.7-7.6-3.9-11.1-6.2c-0.3-0.2-0.8-0.3-1.2-0.3c-6,0.9-11.9,2.2-17.7,3.9c-3.9,1.2-7.8,2.4-11.7,3.7c-0.3,0.1-0.6,0.5-0.8,0.8
	c-2.2,4.3-4.6,8.4-7.5,12.3c-2.4,3.3-5.1,6.5-8.5,8.9c-1.7,1.2-3.6,2.2-5.7,2.5c-2.8,0.5-6.2-1.1-7.6-3.5c-1.1-1.7-0.9-3.5,0.1-5.2
	c1.2-2.2,3-3.8,4.9-5.3c4.2-3.3,8.9-5.8,13.7-8.2c0.1,0,0.1,0,0.2,0C32.7,84,32.8,84.1,32.8,84.1z M55,50.2
	c-3,10.1-6.6,19.8-10.9,29.3c8.6-3.5,17.2-6.6,26.4-8.2C63.8,65.3,59,58.1,55,50.2z M56,16.4c-0.3,0.5-0.6,1-0.9,1.5
	c-0.8,1.8-1.1,3.7-1.1,5.7c-0.2,4.3,0.4,8.6,1.3,12.9c0.3,1.3,0.6,2.6,0.9,4c1.1-3.4,2.1-6.8,3-10.2c0.7-2.6,1.1-5.2,0.7-7.9
	C59.6,19.7,58.3,17.8,56,16.4z"/>
</svg>
