<?xml version="1.0" encoding="utf-8"?>
<!-- Generator: Adobe Illustrator 18.1.1, SVG Export Plug-In . SVG Version: 6.00 Build 0)  -->
<!DOCTYPE svg PUBLIC "-//W3C//DTD SVG 1.1//EN" "http://www.w3.org/Graphics/SVG/1.1/DTD/svg11.dtd">
<svg version="1.1" id="Layer_1" xmlns="http://www.w3.org/2000/svg" xmlns:xlink="http://www.w3.org/1999/xlink" x="0px" y="0px"
	 viewBox="0 0 120 120" enable-background="new 0 0 120 120" xml:space="preserve">
<path fill="#676767" d="M113.1,93.1c-0.1-0.8-0.5-1.7-1.3-2.3c-0.1-0.1-0.2-0.1-0.2-0.2c0,0,0,0-0.1,0c-0.1-0.1-0.2-0.1-0.3-0.2
	c0,0-0.1,0-0.1-0.1c-4-2.3-8.1-4.4-12.3-6.2c-2.2-1-4.4-1.8-6.6-2.7c-2.5-0.9-6.3-3.2-9-3c-5.1,0.4-7.6,5.7-10.6,9.4
	c-7.5,9.5-19.9-6.4-24.4-11.4c-4-4.5-7.7-9.4-11-14.4c-3.3-4.9-7.4-10.2-5.8-16.4c1.2-4.6,9-6.9,12.8-8.8c4.3-2.2,1.6-9.8,1-13.1
	c-1.2-6.1-2.5-12.1-4-18.1c-1.3-5.4-4.4-6.7-9.6-5C26,2.4,20.8,5.1,16.1,8.4C12.2,11,7.4,13.9,7,18.9c-0.5,5.3-0.2,10.7,0.5,16
	c3.6,28.2,20.7,53.8,43.7,70.1c11,7.8,24,13.2,37.4,15c6.3,0.8,11.9-5.8,15.8-10.1C107.9,105.8,114.4,98.9,113.1,93.1z"/>
</svg>
