<?xml version="1.0" encoding="utf-8"?>
<!-- Generator: Adobe Illustrator 18.1.1, SVG Export Plug-In . SVG Version: 6.00 Build 0)  -->
<!DOCTYPE svg PUBLIC "-//W3C//DTD SVG 1.1//EN" "http://www.w3.org/Graphics/SVG/1.1/DTD/svg11.dtd">
<svg version="1.1" id="Layer_1" xmlns="http://www.w3.org/2000/svg" xmlns:xlink="http://www.w3.org/1999/xlink" x="0px" y="0px"
	 viewBox="0 0 120 120" enable-background="new 0 0 120 120" xml:space="preserve">
<rect fill="#007544" width="120" height="120"/>
<g>
	<path fill="#FFFFFF" d="M12,13.9h17.5L42,27.4l12.4-13.5H72h1.1L57.9,29.3l-7.1,7.7l7.1,7.7L73.2,60H54.4L42,46.5L29.5,60H12
		l21.2-23.1L12,13.9z"/>
</g>
<rect x="84" y="18" fill="#FFFFFF" width="24" height="18"/>
<rect x="84" y="42" fill="#FFFFFF" width="24" height="18"/>
<rect x="84" y="66" fill="#FFFFFF" width="24" height="18"/>
<rect x="84" y="90" fill="#FFFFFF" width="24" height="18"/>
<rect x="48" y="66" fill="#FFFFFF" width="24" height="18"/>
<rect x="48" y="90" fill="#FFFFFF" width="24" height="18"/>
<rect x="12" y="66" fill="#FFFFFF" width="24" height="18"/>
<rect x="12" y="90" fill="#FFFFFF" width="24" height="18"/>
</svg>
