<?xml version="1.0" encoding="utf-8"?>
<!-- Generator: Adobe Illustrator 18.1.1, SVG Export Plug-In . SVG Version: 6.00 Build 0)  -->
<!DOCTYPE svg PUBLIC "-//W3C//DTD SVG 1.1//EN" "http://www.w3.org/Graphics/SVG/1.1/DTD/svg11.dtd">
<svg version="1.1" id="Layer_1" xmlns="http://www.w3.org/2000/svg" xmlns:xlink="http://www.w3.org/1999/xlink" x="0px" y="0px"
	 viewBox="0 0 120 120" enable-background="new 0 0 120 120" xml:space="preserve">
<circle fill="#DEDEDD" cx="57.8" cy="59.6" r="57"/>
<g>
	<path fill="#676767" d="M60,0C26.9,0,0,26.9,0,60c0,33.1,26.9,60,60,60c33.1,0,60-26.9,60-60C120,26.9,93.1,0,60,0z M60,114.6
		C29.9,114.6,5.4,90.1,5.4,60C5.4,29.9,29.9,5.4,60,5.4c30.1,0,54.6,24.5,54.6,54.6C114.6,90.1,90.1,114.6,60,114.6z"/>
	<path fill="#676767" d="M60,20.2c-1.5,0-3,1.2-3,2.7v36L41.7,74.3c-1,1-1,2.7,0.1,3.8c0.5,0.5,1.3,0.8,1.9,0.8
		c0.7,0,1.4-0.3,1.9-0.8l15.6-15.6c0.1-0.1,0.4-0.2,0.4-0.3c0.7-0.5,1.3-1.3,1.3-2.2V22.9C63,21.4,61.5,20.2,60,20.2z"/>
	<path fill="#676767" d="M81,23.6c0.4,0.2,0.8,0.3,1.2,0.3c0.8,0,1.7-0.4,2.1-1.2l1.4-2.5c0.7-1.2,0.3-2.7-0.9-3.3
		c-1.2-0.7-2.7-0.3-3.3,0.9l-1.4,2.5C79.5,21.4,79.9,22.9,81,23.6z"/>
	<path fill="#676767" d="M39,96.4c-1.2-0.7-2.7-0.3-3.3,0.9l-1.4,2.5c-0.7,1.2-0.3,2.7,0.9,3.3c0.4,0.2,0.8,0.3,1.2,0.3
		c0.8,0,1.7-0.4,2.1-1.2l1.4-2.5C40.5,98.6,40.1,97.1,39,96.4z"/>
	<path fill="#676767" d="M102.3,81.6l-2.5-1.4c-1.2-0.7-2.7-0.3-3.3,0.9c-0.7,1.2-0.3,2.7,0.9,3.3l2.5,1.4c0.4,0.2,0.8,0.3,1.2,0.3
		c0.8,0,1.7-0.4,2.1-1.2C103.8,83.7,103.4,82.2,102.3,81.6z"/>
	<path fill="#676767" d="M22.7,35.6l-2.5-1.4c-1.2-0.7-2.7-0.3-3.3,0.9c-0.7,1.2-0.3,2.7,0.9,3.3l2.5,1.4c0.4,0.2,0.8,0.3,1.2,0.3
		c0.9,0,1.7-0.4,2.1-1.2C24.3,37.8,23.9,36.3,22.7,35.6z"/>
	<path fill="#676767" d="M38.4,17.7c-0.7-1.2-2.2-1.6-3.3-0.9c-1.2,0.7-1.6,2.2-0.9,3.3l1.4,2.5c0.5,0.8,1.3,1.2,2.1,1.2
		c0.4,0,0.8-0.1,1.2-0.3c1.2-0.7,1.6-2.2,0.9-3.3L38.4,17.7z"/>
	<path fill="#676767" d="M84.4,97.3c-0.7-1.2-2.2-1.6-3.3-0.9c-1.2,0.7-1.6,2.2-0.9,3.3l1.5,2.5c0.5,0.8,1.3,1.2,2.1,1.2
		c0.4,0,0.8-0.1,1.2-0.3c1.2-0.7,1.6-2.2,0.9-3.3L84.4,97.3z"/>
	<path fill="#676767" d="M20.3,80.1l-2.5,1.4c-1.2,0.7-1.6,2.2-0.9,3.3c0.5,0.8,1.3,1.2,2.1,1.2c0.4,0,0.8-0.1,1.2-0.3l2.5-1.4
		c1.2-0.7,1.6-2.2,0.9-3.3C22.9,79.9,21.4,79.5,20.3,80.1z"/>
	<path fill="#676767" d="M98.6,40.2c0.4,0,0.8-0.1,1.2-0.3l2.5-1.4c1.2-0.7,1.6-2.2,0.9-3.3c-0.7-1.2-2.2-1.6-3.3-0.9l-2.5,1.4
		c-1.2,0.7-1.6,2.2-0.9,3.3C96.9,39.8,97.7,40.2,98.6,40.2z"/>
	<path fill="#676767" d="M17.9,59.8c0-1.4-1.1-2.6-2.4-2.6L12.6,57h0c-1.3,0-2.4,1.4-2.4,2.7c0,1.4,1.1,2.4,2.4,2.4l2.9-0.1h0
		C16.8,62,17.9,61.1,17.9,59.8z"/>
	<path fill="#676767" d="M107.4,57L107.4,57l-2.9,0.3c-1.4,0-2.4,1-2.4,2.4c0,1.3,1.1,2.3,2.4,2.3h0l2.9,0.2c1.4,0,2.4-1.3,2.4-2.6
		C109.8,58.2,108.8,57,107.4,57z"/>
	<path fill="#676767" d="M60,102C60,102,60,102,60,102c-1.4,0-2.4,1.1-2.5,2.5l0,2.5c0,1.4,1.1,2.1,2.4,2.1c0,0,0,0,0,0
		c1.3,0,2.4-0.7,2.4-2l0-2.7C62.5,102.9,61.4,102,60,102z"/>
	<path fill="#676767" d="M60.5,17.9c1.4,0,2.5-1.1,2.5-2.4v-2.9c0-1.3-1.1-2.4-2.5-2.4c-1.4,0-2.5,1.1-2.5,2.4v2.9
		C58,16.8,59.1,17.9,60.5,17.9z"/>
</g>
</svg>
