<?xml version="1.0" encoding="utf-8"?>
<!-- Generated by IcoMoon.io -->
<!DOCTYPE svg PUBLIC "-//W3C//DTD SVG 1.1//EN" "http://www.w3.org/Graphics/SVG/1.1/DTD/svg11.dtd">
<svg version="1.1" xmlns="http://www.w3.org/2000/svg" xmlns:xlink="http://www.w3.org/1999/xlink" width="1024" height="1024" viewBox="0 0 1024 1024"><g id="icomoon-ignore">
</g>
<path d="M1006.933 861.013c0 80.213-64.853 145.067-145.067 145.067h-699.733c-80.213 0-145.067-64.853-145.067-145.067v-698.027c0-80.213 64.853-145.92 145.067-145.92h698.88c80.213 0 145.067 64.853 145.067 145.067v698.88z" fill="rgb(255, 251, 214)"></path>
<path d="M858.453 0h-692.907c-91.307 0-165.547 74.24-165.547 165.547v692.907c0 91.307 74.24 165.547 165.547 165.547h692.907c91.307 0 165.547-70.827 165.547-162.133v-696.32c0-91.307-74.24-165.547-165.547-165.547zM153.6 307.2v110.933h-110.933v-110.933h110.933zM42.667 648.533h110.933v76.8h-110.933v-76.8zM42.667 622.933v-76.8h110.933v76.8h-110.933zM42.667 520.533v-76.8h110.933v76.8h-110.933zM42.667 750.933h110.933v76.8h-110.933v-76.8zM204.8 750.933h776.533v76.8h-776.533v-76.8zM204.8 725.333v-76.8h776.533v76.8h-776.533zM204.8 622.933v-76.8h776.533v76.8h-776.533zM204.8 520.533v-76.8h776.533v76.8h-776.533zM204.8 418.133v-110.933h776.533v110.933h-776.533zM42.667 858.453v-5.12h110.933v127.147c-62.293-5.973-110.933-58.027-110.933-122.027zM858.453 981.333h-653.653v-128h776.533v8.533c0 67.413-55.467 119.467-122.88 119.467z" fill="rgb(103, 104, 104)"></path>
</svg>
